<?xml version="1.0" encoding="utf-8"?>
<!-- Generator: Adobe Illustrator 26.0.1, SVG Export Plug-In . SVG Version: 6.00 Build 0)  -->
<svg version="1.1" id="Layer_1" xmlns="http://www.w3.org/2000/svg" xmlns:xlink="http://www.w3.org/1999/xlink" x="0px" y="0px"
	 viewBox="0 0 1024 1024" style="enable-background:new 0 0 1024 1024;" xml:space="preserve">
<style type="text/css">
	.st0{fill:#4F39F6;}
	.st1{fill:#0B0B0B;}
	.st2{fill:#372FD3;}
	.st3{fill:#362FC9;}
	.st4{fill:#2E27C1;}
	.st5{fill:#3E36DD;}
	.st6{fill:#171718;}
	.st7{display:none;fill:#FEFEFE;}
</style>
<path class="st0" d="M0,0c337.9,0,675.8,0,1024,0c0,337.9,0,675.8,0,1024c-337.9,0-675.8,0-1024,0C0,686.1,0,348.2,0,0z"/>
<path class="st1" d="M462.6,119.6c2.1,0,4.2,0,6.3,0c16.8,0,32.7,4.4,45.1,16.2c3.2,3.7,5.6,7.9,7.9,12.2c0.7,1,1.3,2,2,3
	c0.8-0.5,1.7-1,2.6-1.5c6.7-2.8,15.4-3.1,22.2-0.4c2.3,1.5,4.3,3,6.3,4.9c0.6,0.5,1.2,1,1.8,1.6c11.1,11.2,16.2,27.6,20.2,42.4
	c0.2,0.7,0.4,1.3,0.5,2c1.3,5,2.2,10,3,15c0.1,0.8,0.3,1.6,0.4,2.5c1.1,7.5,1.7,14.9,2,22.5c0.9,0.1,1.9,0.3,2.8,0.4
	c6.4,1.2,10.1,5.2,13.8,10.3c7.2,11.9,8.6,27.4,5.4,40.9c-3.9,12-10.3,26-21.1,33.1c-1.8,1.3-1.8,1.3-2.9,3.3
	c-0.4,9.4,3.2,19.1,6,28c0.3,1,0.6,2,0.9,3.1c2,6.6,4.2,13.2,6.6,19.6c0.3,0.8,0.6,1.6,0.9,2.4c2,5.4,4.2,10.7,6.6,15.9
	c0.8-0.5,1.5-1,2.3-1.5c10.8-6.7,10.8-6.7,17.7-5.5c10.7,4.2,14.8,16.2,19.9,25.8c0.4,0.7,0.7,1.4,1.1,2.1c0.7,1.4,1.4,2.9,2.1,4.3
	c6.6,14.1,30.7,20.7,44.5,26.4c4,1.6,7.9,3.3,11.9,4.9c0.8,0.3,1.5,0.6,2.3,1c7.4,3.1,14.8,6.2,22.1,9.6c1.5,0.7,3.1,1.4,4.6,2.1
	c15.4,7,30.6,14.7,43.5,25.9c0.7,0.6,1.3,1.1,2,1.7c28.3,26.2,31.3,72.1,36.1,108c0.7,4.9,1.4,9.8,2.1,14.8
	c2.6,17.3,4.1,34.7,5.6,52.1c0.1,0.8,0.1,1.6,0.2,2.4c0.3,3.9,0.7,7.8,1,11.7c0.1,1.4,0.2,2.9,0.4,4.3c0.1,1.3,0.2,2.5,0.3,3.8
	c0.2,3,0.2,3,0.8,5.1c0.5,2.1,0.7,4.1,0.9,6.2c0.1,0.8,0.1,1.7,0.2,2.5c0.1,1.4,0.1,1.4,0.2,2.7c0.1,1,0.1,1.9,0.2,2.9
	c1.5,23.4,2.4,46.8,2.4,70.2c0,1.2,0,2.5,0,3.7c0.1,29.6-1.7,60.5-14.4,87.7c-0.4,1-0.9,1.9-1.3,2.9c-7.6,15.5-20.9,25.9-36.7,32.1
	c-2.9,0.8-5.7,1.5-8.6,2.1c-0.7,0.2-1.4,0.3-2.2,0.5c-67.3,14.9-154.3-7.3-216.2-32.6c-0.8-0.3-1.6-0.6-2.4-1
	c-20.8-8.5-40.7-17.7-57.2-33.1c-8.2-7.7-15.5-12.3-26.3-15.7c-6.1-2-11.6-4.5-15.1-10.2c-1.1-3.4-1.1-6.1-1.1-9.7
	c0-1.2,0-2.4,0-3.6c0-0.9,0-1.8,0-2.7c-1.3-0.1-2.5-0.3-3.8-0.4c-2.6-0.3-4.7-0.7-7.2-1.6c-0.2,1.1-0.3,2.2-0.5,3.3
	c-0.6,4-1.3,8.1-1.9,12.1c-0.3,1.7-0.6,3.5-0.8,5.2c-0.4,2.5-0.8,5-1.2,7.5c-0.1,0.8-0.2,1.5-0.4,2.3c-0.7,4.3-1.6,8.4-2.7,12.6
	c-0.8,3.1-1.2,6.3-1.6,9.5c-0.1,0.7-0.2,1.4-0.3,2.1c-0.2,1.5-0.4,2.9-0.6,4.4c-0.3,2.3-0.7,4.6-1,6.8c-1,6.6-1.9,13.2-2.8,19.7
	c-0.1,0.9-0.3,1.9-0.4,2.8c-0.2,1.7-0.5,3.3-0.7,5c-0.5,3.5-1,5.6-3,8.6c-1.6-0.3-3.3-0.7-5-1c-1-14.6,1.8-28.4,4.4-42.7
	c0.9-5.3,1.6-10.5,2.2-15.8c0.4-2.5,0.4-2.5,1.4-4.5c0.3-1.3,0.5-2.7,0.6-4c0.1-0.8,0.2-1.6,0.4-2.5c0.1-0.9,0.2-1.8,0.4-2.7
	c1.6-11.1,3.4-22.1,6.6-32.8c-0.7-0.1-1.4-0.2-2-0.3c-3.8-0.9-6.9-2.6-10.2-4.6c-0.7-0.4-1.4-0.8-2.1-1.2c-6.9-4-13.4-8.5-19.8-13.2
	c-0.7-0.5-1.3-0.9-2-1.4c-1.2-0.9-2.3-1.8-3.4-2.7c-5.7-4.6-12.4-6.1-19.4-8c-1.3-0.4-2.5-0.7-3.8-1.1c-3.1-0.9-6.2-1.7-9.3-2.6
	c0,1.3,0,2.6,0,4c-0.9,43.4-3.2,92.7-35.7,124.8c-15.3,13.8-32.8,17.5-52.9,16.8c-7.8-0.5-14.3-2.1-21.4-5.5c-1-0.4-1.9-0.9-3-1.4
	c-7.1-3.6-13.1-8.4-19-13.6c-1-0.9-1-0.9-2.1-1.8c-16.6-15.3-29.9-40.8-33.8-63c-0.9-4.9-3.7-8.6-6.5-12.7
	c-7.3-11.3-6.2-29.3-4.3-42.1c1-4.7,2.7-9,4.6-13.5c0.3-0.6,0.5-1.2,0.8-1.9c3.6-8.3,8.3-15.3,14.2-22.1c1.3-1.7,2.7-3.3,4-5
	c-0.4-0.6-0.8-1.3-1.2-2c-4.6-7.3-9.2-14.7-13.8-22c-0.5-0.8-1-1.6-1.5-2.4c-4.3-6.9-8.3-13.9-12-21.2c-0.3-0.7-0.7-1.3-1-2
	c-3.8-7.7-4.5-16-3.5-24.5c2.4-6.6,6.1-12.3,10-18c2.6-4.7,2.8-9.7,2-15c-1.7-3.8-3.9-7.1-6.2-10.4c-1.3-1.9-2.6-3.9-3.9-5.8
	c-0.7-1-1.3-1.9-2-2.9c-2.7-4-5.3-8.1-7.8-12.2c-1-1.5-1.9-3.1-2.9-4.6c-3.7-5.9-7.4-11.7-11-17.6c-0.6-1-1.2-2-1.9-3
	c-13.3-21.2-13.3-21.2-13.2-25.6c1.5-6.4,3.8-12,8.8-16.4c6.9-3.3,13.3-3.9,20.8-4.4c1.6-0.1,1.6-0.1,3.2-0.2
	c3.4-0.2,6.8-0.4,10.2-0.6c1.2-0.1,2.3-0.1,3.5-0.2c14.5-0.8,29-1.5,43.5-1.6c1.6,0,3.1,0,4.7-0.1c12-0.2,23.4,0.7,32.4,9.4
	c6,6.8,10.5,14.7,14.8,22.6c0.6,1,1.1,2,1.7,3c1.8,3.1,3.5,6.3,5.3,9.4c7.1,12.8,14.3,25.5,21.6,38.2c0.6,1,1.2,2,1.8,3
	c2.7,4.7,5.5,9.3,8.6,13.8c2.4-5.9,3.9-11.6,5.1-17.8c5-22.9,11.8-46.5,27.9-64.2c0.7-0.7,1.3-1.5,2-2.2
	c21.5-22.8,53.3-36.3,81.5-48.7c0.7-0.3,1.4-0.6,2.1-0.9c2-0.9,4-1.7,6-2.6c1.1-0.5,2.3-1,3.5-1.5c3-1.1,3-1.1,7-1.1
	c0-0.6,0.1-1.2,0.1-1.8c0.6-6.7,1.8-11.6,7-16.1c2.9-2.1,2.9-2.1,4.9-2.1c-0.7-0.8-1.3-1.6-2-2.5c-20.6-25.7-43.2-56.6-49.6-89.7
	c-1.1-5.4-3.1-8.5-6.7-12.6c-4.2-5.3-5.8-11.1-6-17.8c-0.3-5.5-2.3-7.7-6-11.5c-2.1-2.5-2.7-4.5-3.2-7.7c-0.4-2.2-1.1-4.2-1.8-6.3
	c-1.7-5-2.8-9.9-3.7-15.1c-0.2-0.9-0.3-1.8-0.5-2.8c-2.4-13.3-2.5-26.5-2.4-40c-1.2,0.5-2.4,1-3.6,1.5c-9.5,3.1-18.7,2.8-27.8-1.4
	c-9.8-5.5-16.7-12.5-20.6-23.1c-3.6-13.4-1.2-28.9,5.2-41c18.6-30.9,59.9-45.8,92.8-55.4c0.8-0.2,1.6-0.5,2.3-0.7
	C437.1,121.4,449.4,119.5,462.6,119.6z"/>
<path class="st0" d="M644,437c3.8,1.5,7.5,3.2,11.2,5c1.2,0.6,2.5,1.2,3.7,1.8c0.6,0.3,1.3,0.6,2,1c11.6,5.7,23.2,11,35.1,15.9
	c50.3,20.7,50.3,20.7,69.1,35.2c-0.3,0.7-0.7,1.3-1,2c-1.7,0.4-3.4,0.8-5.1,1.1c-8.3,2-15.5,5.8-22.9,9.9c-0.6,0.3-1.3,0.7-1.9,1
	c-33,17.9-57.4,48-72.8,81.9c-0.3,0.7-0.7,1.5-1,2.3c-1.6,3.7-2.7,6.8-2.3,10.9c1.9-0.1,1.9-0.1,4-1c1.6-2.4,1.6-2.4,2.9-5.5
	c0.5-1.1,1-2.3,1.6-3.5c0.3-0.6,0.5-1.2,0.8-1.8c7.1-15.7,15.4-29.2,26.7-42.2c0.7-0.8,1.4-1.6,2.1-2.5
	c17.6-20.2,45.3-43.1,73.1-45.8c3.2,0.4,4.1,0.9,6.1,3.3c17.5,22.1,21,53.3,24.8,80.3c0.2,1.4,0.4,2.8,0.6,4.2
	c0.1,0.7,0.2,1.4,0.3,2.1c0.6,4.4,1.3,8.7,2.1,13.1c1.7,10,2.9,19.9,3.8,30c0.2,1.7,0.3,3.5,0.5,5.2c0.3,2.7,0.5,5.4,0.8,8.1
	c0.6,6.1,1.2,12.2,1.9,18.3c1.9,17.8,3.4,35.6,4.3,53.5c0,0.7,0.1,1.4,0.1,2.1c0.1,1.8,0.2,3.7,0.3,5.5c0.2,2.5,0.4,5,0.7,7.5
	c0.8,7,0.7,14.1,0.7,21.2c0,0.8,0,1.5,0,2.3c0,4.1,0,8.2,0,12.3c0,3.3,0,6.7,0,10c0.1,18,0.1,35.5-3.3,53.3
	c-0.4,2.5-0.9,4.9-1.3,7.4c-3.5,18.9-11.4,36.7-26.8,48.7c-4.7,3.1-9.6,5.1-14.9,6.9c-0.7,0.3-1.5,0.6-2.2,0.9
	c-13.3,5.1-28.3,4.5-42.3,4.4c-1.4,0-1.4,0-2.9,0c-66.7-0.2-138.8-16-198.6-46.3c-1.2-0.6-1.2-0.6-2.5-1.3
	c-7.5-3.8-14.8-7.5-21.5-12.7c0-0.7,0-1.3,0-2c1.5-1,1.5-1,3.5-2.1c18.3-11.2,25.2-35.9,31.5-54.9c0.3-0.8,0.5-1.6,0.8-2.4
	c3.4-10.6,3.6-21.4,3.7-32.5c0-0.7,0-1.4,0-2.2c0.1-10.2-0.5-20.1-7-28.4c-2.1-2.1-4.1-3.8-6.5-5.5c11.2-0.8,18.6,2.9,27,10
	c0.4,0.5,0.8,1.1,1.2,1.6c2.6,2.1,4.6,1.5,7.9,1.2c9.1-0.2,16.7,2.5,25.1,5.6c1.6,0.6,3.2,1.1,4.8,1.7c3.2,1.1,6.3,2.2,9.5,3.3
	c4.1,1.4,8.1,2.8,12.2,4.2c2.3,0.8,4.5,1.5,6.8,2.3c1,0.3,2,0.7,3,1c11.3,3.9,20.7,8.9,29.9,16.5c2.4,1.9,2.4,1.9,4.9,1.4
	c0.5-0.2,1.1-0.5,1.7-0.8c0.2-3.7,0.2-4.8-2-8c8.3-0.7,14.3,1.6,21.9,4.9c1.2,0.5,2.4,1,3.6,1.5c19.7,8.4,38.2,18.6,54.5,32.6
	c0.8,0.7,1.6,1.4,2.5,2.1c13.7,12,24.7,26,33.1,42.2c1.9,2.3,3.5,2.4,6.4,2.7c0.5-5.8-0.8-9.4-3.9-14.2c-0.4-0.7-0.8-1.3-1.2-2
	c-23.1-36.4-56.4-55.6-94.8-72.8c1-3,1-3,2.9-4.2c4.4-1.2,8.6-1.2,13.1-1.2c1.4,0,1.4,0,2.8,0c7.6,0.1,14.1,1.5,21.2,4.4
	c0.8,0.3,1.6,0.5,2.4,0.8c13.6,4.7,25.1,13.8,35.2,23.8c1.2,1.2,2.5,2.4,3.7,3.6c4.4,4.2,8.1,8.7,11.6,13.7c1.7-0.3,3.3-0.7,5-1
	c-0.5-4.7-1.6-7.3-4.6-10.9c-0.7-0.9-1.5-1.7-2.2-2.6c-0.7-0.8-1.4-1.7-2.2-2.5c-0.5-0.7-1.1-1.3-1.6-2
	c-11.7-14.5-29.4-24.2-46.4-31c-0.8-0.3-1.6-0.7-2.4-1c-7.4-2.7-14.1-3.3-22-3.3c-1,0-2,0-3-0.1c-7.9,0-15.2,1.3-21.2,6.8
	c-3.4,2.3-5.6,1.7-9.6,1.1c-2.9-0.4-5.8-0.7-8.7-1c-1-0.1-1.9-0.2-2.9-0.3c-0.7-0.1-1.5-0.1-2.2-0.2c0-1.3,0-2.5-0.1-3.8
	c-0.1-4.8-0.2-9.6-0.3-14.4c0-2.1-0.1-4.1-0.1-6.2c-0.2-9.8-0.4-19.6-1-29.4c-0.7-10.6-0.7-21.3-0.7-31.9c0-3.4,0-6.9-0.1-10.3
	c-0.1-19.2,1.2-38,6.8-56.4c0.3-1,0.6-2,0.9-3.1c1.3-4.4,2.7-8.7,4.3-13c1.2-3.2,1.6-5.2,1.3-8.5c-1.9,0-1.9,0-4,1
	c-1.5,2.7-1.5,2.7-2.6,6.1c-0.4,1.2-0.8,2.4-1.3,3.6c-0.4,1.1-0.8,2.2-1.2,3.3c-0.5,1.3-1,2.6-1.6,3.9c-3.4,9.3-5.6,19-7.1,28.8
	c-0.1,0.7-0.2,1.5-0.4,2.2c-1.9,12.6-2.1,25.3-2.1,38c0,2.7,0,5.5,0,8.2c0,1.8,0,3.5,0,5.3c0,1.2,0,1.2,0,2.4
	c0,4.2,0.2,8.3,0.6,12.4c0.6,6.3,0.6,12.5,0.6,18.8c0,1.8,0,1.8,0,3.7c0,3.8,0,7.6,0,11.4c0,2.6,0,5.2,0,7.8c0,6.3,0,12.7,0,19
	c-0.7-0.3-1.4-0.5-2.2-0.8c-3.3-1.2-6.5-2.4-9.8-3.5c-1.1-0.4-2.2-0.8-3.4-1.2c-6.2-2.2-12.4-4.4-18.7-6.5
	c-5.4-1.8-10.9-3.6-16.3-5.4c-1.1-0.4-1.1-0.4-2.2-0.7c-2-0.7-3.9-1.4-5.9-2.1c-6.6-2.3-12.4-4-19.4-4.6c-6.4-0.7-9.8-2.4-14.7-6.4
	c-7.7-5.5-17.2-6.9-26.4-5.8c-2.4,0.7-4.7,1.5-7.1,2.4c-3,1-5,0.6-7.9-0.4c-1.3-0.7-2.5-1.4-3.8-2.1c-4.7-2.5-9.1-2.5-14.2-1.9
	c-1,0.3-2,0.7-3,1c-0.4-0.7-0.8-1.5-1.1-2.2c-1.7-3.3-3.4-6.6-5.2-10c-0.9-1.7-0.9-1.7-1.8-3.5c-0.6-1.1-1.2-2.2-1.7-3.4
	c-0.5-1-1.1-2-1.6-3.1c-1.5-2.9-1.5-2.9-3.2-5.6c-1.8-3.3-1-5.8-0.3-9.3c0.3-2.1,0.6-4.3,0.9-6.4c0.3-2.4,0.7-4.9,1-7.3
	c0.2-1.2,0.3-2.4,0.5-3.6c3.1-21.7,3.1-21.7,4.5-24.7c0.3-2,0.6-4.1,0.8-6.1c1.1-8.2,2.8-16.2,4.7-24.3c0.2-0.8,0.3-1.5,0.5-2.3
	c11.3-50.3,11.3-50.3,18.4-71.7c1.3-4,1.9-7.4,1.6-11.6c-2.5,0.5-2.5,0.5-5,1c-7.7,25.7-14.7,51.6-20.3,77.9c-0.9,4-1.8,8-2.7,12
	c-2.9,12.6-5.6,25.2-7,38.1c-0.3,0.7-0.7,1.3-1,2c-0.2,1.4-0.3,2.9-0.4,4.3c-0.6,6.4-2.1,12.5-3.6,18.7c-2.9-2.7-5-5.4-7-8.8
	c-11-18.5-30-28.3-49-37.2c-0.6-0.3-1.2-0.6-1.9-0.9c-4.9-2.2-8.9-3.2-14.1-2.1c-3.1,1.7-5.4,3.8-7,7c-0.2,2-0.4,4.1-0.6,6.1
	c-0.1,1.6-0.1,1.6-0.3,3.3c-0.1,0.8-0.1,1.7-0.2,2.6c-1.1-0.3-2.1-0.6-3.2-0.8c-7.3-1.9-14.3-3.6-21.8-4.2c1.1-14,2.7-28.6,8.1-41.7
	c1.2-3.1,1-6,0.9-9.3c-1.9,0.2-1.9,0.2-4,1c-7.5,13.1-10.6,31.2-11.8,46.1C352,626,352,626,351,627c-2.3,0.2-4.6,0.3-6.9,0.3
	c-0.7,0-1.4,0-2.1,0.1c-2.2,0.1-4.4,0.1-6.6,0.2c-1.5,0-3,0.1-4.5,0.1c-3.7,0.1-7.3,0.2-11,0.3c-0.5-8.3,0.9-15.8,2.8-23.8
	c0.3-1.2,0.5-2.4,0.8-3.6c1.5-7,3.4-13.9,5.6-20.8c1-3.3,1.9-6.6,2.8-9.9c8.2-28.5,25.6-46.5,50.8-60.7c12.1-6.7,24.5-13,37.1-18.8
	c1.3-0.6,1.3-0.6,2.7-1.2c7.3-3.3,14.7-5.7,22.5-7.2c0.1,1.5,0.1,1.5,0.3,3c0.8,7.4,1.4,14.3,6.7,20c3.3,1.7,6.4,1.6,10,1
	c5.1-2.1,10-4.7,14.7-7.7c3.5-1.9,5.5-1.2,9.3-0.3c1.5,0.5,3.1,1,4.6,1.5c5.2,1.6,9.9,2,15.3,1.9c1.4,0,1.4,0,2.7,0
	c7.2-0.1,13.8-1.4,20.8-3c6.4-1.4,12.3-1.5,18.9-1.3c10.1,0.3,17.7-1.5,26.8-6.1c0.7-0.3,1.3-0.7,2-1C600,478.1,630.2,459.6,644,437
	z"/>
<path class="st0" d="M488.8,203.6c1.8,0,1.8,0,3.7-0.1c4.2,0.6,6.3,1.8,9.5,4.5c3.8,5.8,4.6,12.9,5.5,19.7
	c1.3,8.8,2.4,16.5,9.5,22.3c2.9,2.1,5.8,4.1,8.7,6.2c6.9,4.8,12.2,10.5,16.3,17.8c0,0.7,0,1.3,0,2c-1,0.5-1,0.5-2.1,1.1
	c-15.6,7.9-15.6,7.9-30.9,16.5c-1,0.6-1.9,1.2-2.9,1.8c-2.2,1.5-2.2,1.5-2.6,3.8c-0.2,0.6-0.3,1.3-0.5,1.9c-0.7,0.3-1.4,0.5-2.1,0.8
	c-4.8,1.9-7.9,6-11.4,9.7c-3.3,3.3-4.6,4.4-9.4,4.5c-2-0.5-2-0.5-4.1-1.1c-1-0.3-1-0.3-2.1-0.6c-2.1-0.7-4.2-1.5-6.3-2.3
	c-0.7-0.3-1.4-0.5-2.2-0.8c-5.2-2-5.2-2-7.5-4.3c-3.1-0.2-3.1-0.2-6,0c-0.6,12.8,0.5,22.8,9,33c6.3,6.4,13.3,10,22.2,10.4
	c8.7-0.2,15.7-3.4,22-9.3c7.7-9,8.3-18.7,7.8-30.1c-0.4-2.2-0.4-2.2-1.1-4.1c-1.1-3.4-1.3-4.6,0.1-7.9c2.5-2,5.4-3.4,8.2-4.9
	c1.2-0.6,1.2-0.6,2.5-1.3c1.6-0.9,3.3-1.7,4.9-2.6c2.1-1.1,4.2-2.3,6.3-3.5c1.7-1,1.7-1,3.4-1.9c1-0.6,2-1.1,3-1.7
	c2.6-1.1,2.6-1.1,4.9-0.9c1.7,0.8,1.7,0.8,3.2,3.4c0.5,0.8,1,1.6,1.6,2.4c2.6,0.2,2.6,0.2,5,0c1.4,5.4,2.7,10.7,4.1,16.1
	c0.5,1.8,0.9,3.6,1.4,5.5c4.1,16,8.1,32,7.9,48.6c0,1,0,2,0,3.1c-0.2,8.8-1.6,16.5-4.4,24.8c-0.3,1-0.7,2.1-1,3.1
	c-2.3,6.3-5.7,11.6-9.6,17c-0.5,0.7-0.9,1.3-1.4,2c-4.2,5.6-4.2,5.6-8,6.9c-0.6-0.8-1.2-1.7-1.9-2.6c-4.2-5.1-10.5-10.3-17.1-11.4
	c1.4,5,4.4,7.3,8.4,10.2c0.6,0.4,1.2,0.9,1.8,1.3c2.6,1.9,5.1,3.7,7.8,5.5c-12.1,13.8-28.9,25.2-46,32c-1,0-2,0-3,0
	c-0.3-4.6-0.7-9.2-1-14c-1,0-2,0-3,0c-0.3,5.3-0.7,10.6-1,16c-2.6,0-5.3,0-8,0c0-7.9,0-15.8,0-24c-2,1-2,1-4,2
	c-0.3,6.9-0.7,13.9-1,21c-6.1-1.2-6.1-1.2-8-4c-0.5-2.8-0.5-2.8-0.6-6.1c-0.1-4.1-0.1-4.1-1.4-7.9c-1.3-0.3-2.6-0.7-4-1
	c0,3,0,5.9,0,9c-18.6-18-31.5-42.6-42-66c-0.3-0.6-0.6-1.2-0.9-1.9c-1.5-3.3-2.6-6.5-3.3-10.1c-0.2-0.8-0.3-1.5-0.5-2.3
	c-0.1-0.6-0.2-1.1-0.3-1.7c0.9,0,1.8,0,2.7,0c1.2,0,2.3,0,3.5,0c1.1,0,2.3,0,3.5,0c2.9-0.1,5.5-0.4,8.3-1.1c0.1,1.6,0.1,1.6,0.1,3.3
	c0.1,1.4,0.1,2.9,0.2,4.3c0,1.1,0,1.1,0.1,2.2c0.3,5.6,1.6,9.8,5.2,14.2c3.9,1.7,7.3,1,11.4,0.1c4.9-2.1,8-4.9,11.9-8.6
	c4.5-4.2,8.1-6,14.1-7.4c0-1.3,0-2.6,0-4c-7-0.9-11.4,2-17,6c-2.2,1.8-4.3,3.6-6.3,5.5c-2.4,2.1-4.1,3.4-7.3,3.8
	c-1.2-0.2-1.2-0.2-2.4-0.3c-2.1-3.1-2.3-3.7-2.3-7.2c0-0.8,0-1.7,0-2.6c0-0.9,0-1.8,0-2.8c0-2-0.1-3.9-0.1-5.9
	c0-3.1-0.1-6.2-0.1-9.3c0.5-24.6,0.5-24.6-9.5-46.3c-7.6-7.3-14.7-10.5-25.1-10.3c-0.8,0-1.6,0-2.4,0c-4.3,0-7.5,0.5-11.5,2.3
	c-1,0-2,0-3,0c-0.7-3.2-1.3-6.3-1.9-9.5c-0.3-1.3-0.3-1.3-0.6-2.7c-2-10-2.8-19.5-2.9-29.6c0-1.2-0.1-2.5-0.1-3.7c0-1.8,0-1.8,0-3.6
	c0-1.1,0-2.1-0.1-3.2c0.6-2.7,0.6-2.7,2.9-4.5c3.1-1.4,6.1-2.6,9.3-3.6c1.2-0.4,2.5-0.9,3.8-1.3c1.2-0.4,2.4-0.8,3.6-1.3
	c1.9-0.7,3.7-1.4,5.6-2.1c3.8-1.4,7.7-2.6,11.6-3.8c14.1-4.3,27.7-9.6,41.3-15.3C479,203.6,479,203.6,488.8,203.6z"/>
<path class="st0" d="M396.6,620.6c4.7,0.1,8.1,1.7,12.2,4c0.7,0.4,1.4,0.7,2.1,1.1c1.4,0.7,2.8,1.5,4.2,2.2c1.7,0.9,3.3,1.8,5,2.6
	c6.8,3.5,12.9,7.7,18.9,12.4c1.5,1.1,1.5,1.1,3,2.2c3.6,3.1,6,6.7,8.6,10.7c0.5,0.8,1,1.6,1.5,2.4c35.2,54.3,35.2,54.3,31.4,72.2
	c-0.7,2.5-1.5,5-2.3,7.5c-0.3,0.8-0.5,1.7-0.8,2.5c-0.5,1.7-1.1,3.3-1.6,5c-0.8,2.6-1.6,5.2-2.4,7.8c-1,3.5-2.2,6.8-3.6,10.1
	c-1.7,3.9-3.3,7.8-4.8,11.7c-0.3,0.9-0.7,1.8-1.1,2.7c-0.7,1.8-1.4,3.6-2,5.4c-0.5,1.2-0.5,1.2-1,2.5c-0.4,1.1-0.4,1.1-0.9,2.3
	c-1.7,3-3.9,4.6-7.1,5.7c-19.8,3.2-39.6-10.7-55-21.7c-1.2-0.9-2.4-1.8-3.7-2.7c-7.5-5.6-14.3-9.4-23.4-11.8
	c-25.5-6.7-56.3-21.1-71.9-43.5c0.2-3.3,0.2-3.3,1-6c3.6,0.7,6.7,2.2,10,3.7c1.8,0.8,1.8,0.8,3.6,1.7c1.3,0.6,2.5,1.2,3.8,1.8
	c17.7,8.6,17.7,8.6,36.1,15.2c1.7,0.5,1.7,0.5,3.3,1c3.1,0.7,5.9,0.8,9.2,0.7c0.7-1.9,0.7-1.9,1-4c-2.7-2.7-4.8-2.8-8.4-3.6
	c-23.8-6-60-19.6-75.6-39.4c-0.7-2.7-0.5-4.2,0-7c3.7-1,6.1-1,9.7,0.2c0.8,0.2,1.5,0.5,2.3,0.7c2.5,0.9,5,1.9,7.5,2.9
	c32,13.2,32,13.2,65.8,18.2c1.8,0,1.8,0,3.7-0.1c0.3-1.6,0.7-3.3,1-5c-3.2-1.4-6.1-2.3-9.6-2.8c-71.9-12.6-71.9-12.6-87.2-30.2
	c-1.3-2-1.3-2-1.1-4.6c1.4-3.9,1.4-3.9,3.9-5.4c6.6-0.4,12.7,0.7,19.2,1.9c1.1,0.2,2.1,0.4,3.2,0.6c3.4,0.6,6.7,1.3,10.1,1.9
	c3.3,0.6,6.7,1.3,10,1.9c2.1,0.4,4.2,0.8,6.2,1.2c5.1,1,10.2,1.8,15.4,2.3c2.7,0.3,5.2,0.9,7.8,1.7c9.9,2.5,18.9,3.9,29.1,3.6
	c-0.5-2-0.5-2-1-4c-1.1-0.3-2.1-0.6-3.2-0.8c-1.4-0.4-2.8-0.7-4.2-1.1c-0.7-0.2-1.4-0.4-2.1-0.6c-5.3-1.4-5.3-1.4-6.4-2.5
	c-2.4-0.5-4.7-1-7.1-1.4c-0.7-0.1-1.4-0.3-2.2-0.4c-3.6-0.7-7.2-1.2-10.9-1.4c-9.7-0.6-9.7-0.6-13.3-4.2c-1.8-2.8-3.2-5.5-4.6-8.6
	c-0.4-0.7-0.8-1.4-1.2-2.2C326,638,326,638,326,635c25.5-7.4,58.1,2.6,80.6,14.9c1.7,1,3.5,2,5.2,3.1c2.8,1.3,5.1,1.2,8.2,1
	c-0.4-2.5-0.7-3.7-2.6-5.5c-0.7-0.4-1.4-0.9-2.1-1.4c-1.2-0.8-1.2-0.8-2.4-1.6c-3.1-1.8-6.3-3.5-9.6-5.1c-5.7-3-9.3-5.6-12.2-11.5
	c-0.2-3-0.2-3,0-6C393,621,393,621,396.6,620.6z"/>
<path class="st2" d="M465.8,127.6c1.2,0,2.5,0,3.7,0c14.1,0.1,27.7,3.7,38.3,13.5C512.5,146,518,154,518,161c4-1,6.7-1.8,10.2-4.1
	c4.6-2.8,9.5-2.6,14.8-1.9c10.3,4.8,16,16,19.8,26.2c4.2,11.8,7.3,23.2,8.8,35.6c0.2,2,0.5,4.1,0.8,6.1c0.1,0.9,0.2,1.8,0.3,2.7
	c0.3,2.2,0.8,4.3,1.4,6.4c0.6,3.2,0.9,5.9,0,9c-2.1,1.8-4.2,3.1-6.6,4.4c-6.1,4-8.5,10.1-10.2,16.9c-1.2,6.2-1.9,12.4-2.2,18.7
	c-0.7-0.3-1.3-0.7-2-1c0-3.3,0-6.6,0-10c-1.6,0.3-3.3,0.7-5,1c-0.6-0.9-0.6-0.9-1.2-1.8c-0.8-1.2-0.8-1.2-1.6-2.4
	c-0.5-0.8-1-1.6-1.5-2.4c-3.5-5-7.1-8.8-12-12.4c-1.2-0.9-2.3-1.8-3.5-2.6c-1.8-1.4-3.7-2.8-5.5-4.2c-0.6-0.5-1.2-1-1.8-1.5
	c-0.5-0.4-1-0.8-1.5-1.2c-4.2-5.1-5-11.2-5.8-17.5c-1-6.6-2.4-12.2-5.6-18.1c-0.3-1-0.7-1.9-1-2.9c-1.3-2.6-2.3-3-5-4.1
	c-0.5-0.3-1.1-0.7-1.6-1c-13.2-5.5-29.1,1.2-41.4,6c-1.3,0.5-2.5,1-3.8,1.5c-0.7,0.3-1.3,0.5-2,0.8c-2.8,1.1-5.6,2.2-8.5,3.3
	c-1.5,0.6-2.9,1.1-4.4,1.7c-11.5,4.5-23,8.2-34.9,11.6c-10.1,2.9-19.6,6.8-29.2,11.2c-2.5,1.1-5,2.2-7.6,3.3c-1.2,0.5-1.2,0.5-2.4,1
	c-6.7,2.2-12.6,0.9-18.9-1.9c-7.1-3.9-11.5-8.8-14.4-16.3c-0.4-0.7-0.7-1.4-1.1-2.2c-3.2-9.6-2-22.2,2.5-31.2
	c16.4-26.9,49.8-40.4,78.6-49.6c1.5-0.5,3.1-1,4.6-1.6c1.5-0.5,2.9-1,4.4-1.4c0.9-0.3,1.9-0.6,2.9-1
	C438.7,129.5,451.3,127.7,465.8,127.6z"/>
<path class="st3" d="M219.9,528.9c2.7-0.1,5.4-0.1,8.1-0.2c1.2,0,1.2,0,2.4-0.1c8.6,0,14.5,2.4,20.8,8.3c3.1,3.4,5.1,7.2,7.3,11.2
	c1,1.9,2.1,3.7,3.1,5.6c0.6,1,1.1,2,1.7,3c3.3,5.8,6.7,11.4,10.2,17c0.7,1.2,1.5,2.4,2.2,3.6c1.4,2.4,2.9,4.7,4.3,7.1
	c3.2,5.2,6.4,10.5,9.6,15.7c0.6,0.9,1.2,1.9,1.7,2.9c4.6,7.6,9.2,15.2,13.8,22.8c0.5,0.8,0.9,1.6,1.4,2.4c1.5,2.6,3.1,5.2,4.6,7.8
	c0.5,0.8,1,1.6,1.5,2.5c0.7,1.1,0.7,1.1,1.4,2.3c0.4,0.7,0.8,1.4,1.2,2.1c1,2,1.5,3.8,2,6c-6.3-0.8-6.3-0.8-8.7-1.2
	c-3.4-0.5-6.9-0.9-10.4-1.2c-9.3-0.9-9.3-0.9-11.5-3.4c-0.8-1.9-0.8-1.9-1.5-5.3c-8.2-0.8-13.8,1.2-21.1,4.9c-2.1,1-4.2,2-6.3,3
	c-1.1,0.5-2.2,1-3.3,1.6c-37.2,17.2-37.2,17.2-49.3,16.5c3.3-8,13.7-12.1,20.9-16.4c14.5-8.3,14.5-8.3,25.1-20.6
	c0.9-4.7,1.1-9.7-1.1-14.1c-2.3-2.8-4.3-4.7-7.9-5.2c-7.2-0.2-12.7,1.5-19.3,4.2c-1.9,0.7-3.8,1.5-5.7,2.2c-0.8,0.3-1.7,0.7-2.5,1
	c-2.5,0.9-4.9,1.4-7.4,1.8c-0.2-0.7-0.5-1.3-0.7-2c-2.4-6.3-4.5-11.1-10.3-15c-4.1-0.6-7.8-0.8-11.4,1.6c-0.5,0.5-1.1,0.9-1.6,1.4
	c-4-1.3-4.9-3.7-6.8-7.2c-3.8-6.6-7.8-13-11.9-19.4c-3.7-5.7-7.3-11.4-10.9-17.2c-0.6-0.9-1.2-1.9-1.8-2.9c-1.1-1.8-2.2-3.6-3.3-5.4
	c-2.2-3.7-4.4-7-7.3-10.2c-1-1.3-1-1.3-2.1-2.7c0.4-2.2,0.4-2.2,1-4c8.9-2.3,17.9-2.4,27-2.6c3-0.1,6-0.1,8.9-0.2c0.7,0,1.4,0,2.2,0
	c4.6-0.1,9.1-0.4,13.6-1C201,529.3,210.5,529.2,219.9,528.9z"/>
<path class="st0" d="M244,616.1c1.7,3.2,1.5,5.3,1,8.9c-3.7,5.9-9.1,9.3-14.9,12.8c-0.8,0.5-1.7,1-2.5,1.5c-3.3,2-6.6,4-10,6
	c-1.5,0.9-2.9,1.8-4.4,2.7c-1.3,0.8-2.7,1.6-4,2.4c-4.5,2.7-8.4,6-11.3,10.6c-0.6,3-0.4,4.9,0,8c2.3,2.3,2.8,2.3,6,2.4
	c5.2-0.1,9.9-1.3,14.9-2.6c0.7-0.2,1.4-0.4,2.2-0.6c10.9-3.2,21.1-8.1,31.4-12.7c4.2-1.8,8.3-3.7,12.5-5.5c1.7-0.7,1.7-0.7,3.4-1.5
	c1.1-0.5,2.2-0.9,3.3-1.4c1-0.4,2-0.9,3-1.3c0.8-0.3,1.6-0.5,2.4-0.8c0.7,0.3,1.3,0.7,2,1c-1.5,1.2-3.1,2.5-4.6,3.7
	c-2.5,2.3-2.4,3.5-2.6,7c0,3.7,0.8,6.8,2.2,10.2c-2.6,2.1-5.1,3.7-8.2,5c-0.8,0.4-1.6,0.8-2.5,1.1c-0.9,0.4-1.8,0.8-2.7,1.2
	c-8.2,3.8-16.1,7.9-24,12.4c-1.4,0.8-1.4,0.8-2.9,1.6c-8.5,4.6-8.5,4.6-15.8,10.6c0,1.3,0,2.6,0,4c6.1-0.4,10.1-2.5,15.2-5.6
	c14.1-8.2,29.9-13.6,45.8-17.4c0.4,1.9,0.4,1.9,0.8,3.8c0.8,3.4,1.7,5.7,4.2,8.2c2.1,1.3,2.1,1.3,4,2c-2.6,2.9-5.4,4.4-8.9,6.2
	c-1.2,0.6-2.4,1.2-3.6,1.9c-0.6,0.3-1.2,0.6-1.9,1c-8.9,4.7-17.8,9.4-26.3,14.7c-1,0.6-1,0.6-1.9,1.2c-2.4,1.5-4.5,3-6.4,5
	c0.3,2.1,0.3,2.1,1,4c4.5-0.6,7.9-2.4,11.7-4.7c7.5-4.2,15.3-7.2,23.4-10.1c2.2-0.8,4.5-1.6,6.7-2.4c1.4-0.5,2.9-1,4.3-1.5
	c0.7-0.2,1.3-0.5,2-0.7c4.6-1.6,4.6-1.6,6.9-1.6c0.1,0.7,0.3,1.5,0.4,2.3c0.3,1.5,0.3,1.5,0.5,3c0.3,1.5,0.3,1.5,0.5,3
	c0.4,2.3,0.9,4.5,1.5,6.8c-6.7,5-13.8,9.3-21,13.4c-7,3.7-7,3.7-12,9.6c-0.6,3.3-0.4,5.3,1.3,8.1c0.5,0.8,1.1,1.5,1.7,2.3
	c2.1,3,3,4.6,3.8,8.3c-0.8,3.5-1.7,5-4.6,7.1c-9.4,5.3-18.4,7.5-29.1,6.2c-3.4-1.3-4.6-2.6-6.2-5.8c-0.4-0.8-0.7-1.5-1.1-2.3
	c-0.4-0.8-0.7-1.6-1.1-2.4c-0.6-1.2-0.6-1.2-1.1-2.4c-2-4.3-2-4.3-2.6-6.1c0.3-0.7,0.7-1.3,1-2c1.6,1.3,3.3,2.6,5,4
	c-1.3-4.6-3.1-8.1-5.8-12.1c-0.4-0.6-0.8-1.2-1.2-1.8c-1.3-2.1-2.7-4.1-4.1-6.1c-0.5-0.8-1-1.5-1.6-2.3c-2.3-3.4-4.6-6.9-6.9-10.3
	c-41.1-61.6-41.1-61.6-38.2-77.5c2.4-7.9,9.1-12.2,16-16c1.9-1,3.9-2,5.9-3c1-0.5,2-1,3.1-1.6c6.8-3.4,13.5-6.7,20.6-9.3
	c1.2-0.5,2.3-0.9,3.5-1.4C238.2,613,238.2,613,244,616.1z"/>
<path class="st0" d="M312,778c3.4,3.1,4.8,6.8,6.4,11.1c0.3,0.8,0.6,1.6,0.9,2.4c4.4,11.7,7.6,23.5,10.2,35.7
	c0.9,3.7,1.9,6.9,3.8,10.3c3.2,6.5,1.1,11.7-1.2,18.3c-3.5,9.8-8.3,18.1-16.1,25.2c-0.5,0.5-1.1,1.1-1.6,1.6
	c-6,5.7-12.9,9.1-20.4,12.4c-1.2,0.5-1.2,0.5-2.5,1.1c-12,4.5-29.4,3.3-41-1.5c-7.2-3.3-13.5-7.4-19.5-12.6c-0.6-0.5-1.3-1-1.9-1.5
	c-10.3-8.1-17-19.9-23-31.3c-0.4-0.8-0.9-1.7-1.4-2.6c-3.1-6-6-12.2-7.7-18.7c0.3-1,0.7-2,1-3c0.6,0.4,1.2,0.8,1.8,1.1
	c18.1,11.3,38.9,16.1,59.9,11.7c10.8-2.9,21.4-6.9,30.3-13.9c0.7-0.5,1.5-1.1,2.3-1.7c7-5.6,10.8-12.5,14.7-20.3
	c0.4-0.7,0.7-1.4,1.1-2.1C311.1,793.2,311.3,785.2,312,778z"/>
<path class="st4" d="M202,732c1,2,1,2,0.4,3.7c-0.3,0.7-0.6,1.4-0.9,2.1c-3.2,9.3-2.2,18,1.7,26.9c6,11,14.5,16.6,25.7,21.2
	c1.4,0.6,1.4,0.6,2.8,1.2c4.2,1.1,8.2,1.1,12.5,1.1c0.8,0,1.6,0,2.5,0c13.6,0,25.2-5.5,35-14.8c5.4-6,9.4-12.4,9.3-20.5
	c0-0.8,0-1.5,0-2.3c0-0.8,0-1.6,0-2.4c0-0.8,0-1.6,0-2.4c0-2,0-3.9,0-5.8c8.5,7.3,12.2,22.7,13.2,33.5c1,14.6-0.5,26.9-10.3,38.4
	c-1,1-1,1-1.9,2.1c-1,1-1,1-1.9,2.1c-11.2,11-27.5,16.2-43,16.4c-1.1,0-2.3,0-3.5,0c-1.2,0-2.4,0-3.6,0c-8.4-0.2-15.3-0.8-23-4.4
	c-1-0.4-2-0.8-3-1.3c-12.2-5.6-21.7-12.7-28-24.7c-0.4-0.6-0.7-1.3-1.1-1.9c-5.6-13.1-2.7-32.3,2.3-45.2
	C190.8,746.2,195.4,738.7,202,732z"/>
<path class="st4" d="M494,711c4.6-0.5,7.1,1,11.1,3.3c4.5,2.5,8.4,4.2,13.4,5.3c4.9,1.1,7.6,2,10.5,6.4c3.5,7.3,3.4,14.5,3.2,22.5
	c0,1.2,0,2.3,0,3.6c-0.1,9-0.5,17.3-3.1,25.9c-0.5,1.7-0.5,1.7-1,3.4c-13.3,42.5-13.3,42.5-29.1,52.6c-3.4,1.4-3.4,1.4-7,1
	c-1.8-1.5-1.8-1.5-3.9-3.5c-8.2-8-20.5-11.2-31.2-14.5c-1.9-1-1.9-1-2.8-3c0-0.7-0.1-1.3-0.1-2c2.1-2.2,2.1-2.2,3.5-3.6
	c12.1-11.5,17.3-29.7,22.7-45c1-2.9,2.1-5.7,3.2-8.6C488.7,740.6,492,726.1,494,711z"/>
<path class="st4" d="M622,398c4.5,4.6,7.2,10.6,10.2,16.2c0.5,1,1.1,2,1.7,3.1c5.7,10.6,5.7,10.6,5.2,16.8c-5.2,8.6-13.2,15-21,21
	c-1,0.8-2,1.7-3.1,2.5C595,473.7,572,491.6,545.4,491c-7-0.1-13.7,0.7-20.4,2.5c-2.1,0.5-4,0.5-6.2,0.5c-1.9,0-1.9,0-3.8-0.1
	c-0.4-13.8-0.4-13.8,2-20c0.4-1.2,0.7-2.3,1.1-3.5c4.7-8.7,14-13.1,22.3-17.8c1.2-0.7,2.3-1.3,3.5-2c3.4-1.9,6.7-3.8,10.1-5.7
	c11.8-6.7,23.1-13.9,34-22c0.6-0.5,1.3-0.9,1.9-1.4c8.2-6.1,15.5-12.7,22.6-20.1C615.7,398.3,617.4,397.3,622,398z"/>
<path class="st0" d="M574,343c1,0.5,1,0.5,2,1c0.5,2.1,0.8,4.2,1.2,6.2c3.1,17.2,10.1,33.5,16.9,49.5c1,2.4,2,4.8,2.9,7.3
	c-14.1,13.7-31.3,23.4-48.2,33.3c-6,3.5-11.9,7.1-17.8,10.7c-1,0.6-2.1,1.2-3.1,1.9c-8.6,5.2-13.8,10.1-17.1,19.8
	c-1.7,7-2.2,14.2-2.8,21.4c-0.7,0-1.3,0-2,0c0-1.7,0-1.7-0.1-3.5c-0.3-8.9-1.1-16.7-4.1-25.1C501,463,501,463,501,461
	c1.7-1.1,3.4-2.1,5.1-3c12.6-7.1,23.2-15.6,33.3-25.9c1.8-1.8,3.6-3.6,5.4-5.3c11.8-11.7,20.4-24.2,26.1-39.8c0.4-1,0.7-1.9,1.1-2.9
	c2.5-8.7,2-17.6,2-26.6c0-1.4,0-2.8,0-4.2C574,349.8,574,346.4,574,343z"/>
<path class="st0" d="M586.6,248c7.1,5.9,10.7,13,11.7,22.1c1.2,16.9-2.6,31.3-13.2,44.9c-9.2,10.4-9.2,10.4-14,11
	c-1.8-5.1-3.1-10.3-4.4-15.6c-1.7-6.9-3.5-13.5-6-20.1c-0.7-2.6-0.3-3.7,0.4-6.3c0.1-1.4,0.1-2.8,0.1-4.1
	c0.1-10.9,0.9-20.2,8.5-28.7C574.6,246.8,580.3,245.6,586.6,248z"/>
<path class="st0" d="M323.2,741c7.4,5.4,15.6,9.9,23.8,14c-1,24.2-3.3,48-7,72c-0.7,0-1.3,0-2,0c-0.1-0.6-0.3-1.2-0.4-1.8
	c-7.7-34.4-7.7-34.4-25.6-64.2c-0.7-0.1-1.3-0.2-2-0.3c-0.6-0.2-1.3-0.4-2-0.7c-1.3-2.9-1.3-2.9-2.5-6.6c-1.8-5.4-3.8-10.4-6.5-15.4
	c2.6-0.2,5.2-0.4,7.8-0.6c0.7-0.1,1.5-0.1,2.2-0.2C315.1,736.8,318.3,737.3,323.2,741z"/>
<path class="st4" d="M467,457c1.8,1,3.6,2,5.4,3.1c4.1,1.5,8.5,1.4,12.9,1.3c4.2,0,5.5,0.5,8.6,3.4c6,9.1,5.5,18.7,5.1,29.2
	c-8.2-0.7-8.2-0.7-11.6-2.1c-3.5-1.4-5.6-1.4-9.4-0.9c-4.6,2.1-8.9,4.7-13.1,7.3c-4.4,2.7-4.4,2.7-6.9,2.5c-3.1-1.3-3.8-3.4-5.2-6.4
	c-1.4-4.2-1.4-8.3-1.3-12.7c0-0.9,0-1.8,0-2.8c0.2-6.7,0.8-13.2,4.5-18.9C459.7,456.7,462.1,456.4,467,457z"/>
<path class="st0" d="M504,306c3.9,6,2.6,15.8,1.6,22.6c-1.7,5.6-5.9,9.2-10.6,12.4c-6,3-12.4,2.8-19,2c-7.8-3.1-13-9.6-16.4-17.1
	c-0.7-3.4-0.8-6.5-0.6-9.9c3,1,6,2,9,3c0.7,0.2,1.4,0.5,2.1,0.7c4.3,1.6,5.9,3.3,7.9,7.3c2.9,1.4,4.8,1.4,8,1
	c3.8-2.9,5.2-5.5,6.8-10C495.5,313.3,500,309.7,504,306z"/>
<path class="st1" d="M476.8,275.6c1.2,0,1.2,0,2.4,0c7.4,0.2,14.3,1.4,20.1,6.3c1.7,2,1.7,2,1.5,4.7C500,289,500,289,499,290
	c-2.3-0.3-4.7-0.7-7-1c-14.9-0.8-26.8,2.4-40,9c-6.3,0.6-6.3,0.6-9-1.6c-1.4-3.4-1.3-4.9,0-8.4C451.8,279,464.6,275.6,476.8,275.6z"
	/>
<path class="st1" d="M199,551c4.7,1.9,8.5,5.6,11,10c0.9,4.3,0.5,7.8-1.1,11.9c-3.3,3.7-6.5,4.9-11.3,5.6c-5.7-0.7-9.1-2.9-13-7
	c-2.2-4.8-2.5-9.2-1.6-14.4C187.6,550.9,191.8,550.3,199,551z"/>
<path class="st0" d="M419,304c4.9,2.2,8,5.6,11,10c-0.1,3.1-1.1,4.1-3.3,6.4c-1,0.8-1.9,1.6-2.9,2.4c-0.9,0.8-1.9,1.6-2.9,2.5
	c-3,1.7-3,1.7-5.9,1.7c-3.3-1.1-6.1-2.4-9.1-4.2c-1-0.6-2-1.2-3.1-1.8c-4.1-2.9-6.7-6.4-8.8-11C402.2,304.4,409.1,302.6,419,304z"/>
<path class="st5" d="M540,431c0.3,0,0.7,0,1,0c0.1,5.6,0.1,5.6,0,8c0,1.2,0,2.3,0,3.5c-1,3.7-1.2,4-4.2,5.9
	c-1.4,0.7-2.8,1.4-4.2,2.1c-9,4.7-17.1,9.3-20.8,19.2c-2.4,8-3.2,16-3.7,24.3c-0.7,0-1.3,0-2,0c0-1.7,0-1.7-0.1-3.5
	c-0.3-8.9-1.1-16.7-4.1-25.1C501,463,501,463,501,461c1.7-1.1,3.4-2.1,5.1-3c11.9-6.8,21.9-14.6,31.4-24.5
	C538.4,432.7,539.2,431.8,540,431z"/>
<path class="st0" d="M431,325c0.7,0,1.3,0,2,0c0.2,3.9,0.3,7.8,0.4,11.8c0.1,1.7,0.1,1.7,0.2,3.4c0.1,3.1,0,5.9-0.5,8.9
	c-3.3,3.3-6.3,4.6-10.9,4.6c-4.5-0.2-7.2-1.2-10.5-4.4c-4.2-5.8-7.1-13.3-8.6-20.2c4.6,1.5,7.5,3.7,11,7c0,0.7,0,1.3,0,2
	c1.4,0.1,2.9,0.1,4.3,0.1c1.2,0,1.2,0,2.4,0.1c2.5,0,2.5,0,5.3-2.2c0.9-1.8,0.9-1.8,1.6-3.9C428.5,329.3,429.3,327.5,431,325z"/>
<path class="st1" d="M584,259c1,0.7,2,1.3,3,2c-0.3,1.6-0.7,3.3-1,5c-1.6-0.1-1.6-0.1-3.3-0.2c-3.5-0.1-3.5-0.1-5.5,1.2
	c-1.9,3.2-2.4,6.4-3.2,10c1.2-0.1,2.4-0.2,3.7-0.3c3.3,0,4.3,0.3,7.3,2.1c3.1,5,2.9,9.6,2,15.2c-2,5.1-5.3,9.2-10,12
	c-1-0.3-2-0.7-3-1c0.5-4.4,2.2-6.6,5-10c1.2-3.5,1.1-6.4,1-10c-1.9-0.6-1.9-0.6-4-1c-0.3,0.3-0.7,0.7-1,1c-2.4,0.2-2.4,0.2-5,0
	c-3.1-4.7-2.6-9.5-2-15c1.2-4,3-6.9,5.8-10C577.3,258.4,580.1,258.7,584,259z"/>
<path class="st1" d="M495,385c2.2,0.3,2.2,0.3,4,1c-0.7,5.5-3,7.6-7.2,11c-9.5,6.7-19.3,9.7-30.8,8c-4.3-1.3-7.8-2.8-11-6
	c0.4-2.1,0.4-2.1,1-4c2.2,0.5,4,1,6,2c11.3,1.2,21.8,1.3,31-6c1.3-1.1,2.6-2.3,3.9-3.4C492.9,386.7,494,385.9,495,385z"/>
<path class="st6" d="M195,390c1.7,0.3,3.3,0.6,5,1c-0.4,7.7-0.8,15.3-2,22.9c-1.3,8.3-1.6,16.7-2,25.1c-2,0.5-2,0.5-4,1
	c-7-10.6-0.3-34.6,1.5-46.7C194,391,194,391,195,390z"/>
<path class="st6" d="M336,209c4.2,0.6,8.1,1.6,12.2,2.9c9.1,2.8,17.9,4.2,27.4,4.7c2.4,0.3,2.4,0.3,4.4,2.3c0,1,0,2,0,3
	c-9.2,4.6-23.8-0.1-33-3c-4.3-1.6-8.1-3.4-12-6C335.3,211.7,335.7,210.4,336,209z"/>
<path class="st1" d="M158,402c1.9,0.3,1.9,0.3,4,1c1.2,1.7,1.2,1.7,2.1,3.9c0.4,0.8,0.7,1.6,1.1,2.5c0.4,0.9,0.7,1.8,1.1,2.7
	c0.4,0.9,0.8,1.8,1.2,2.7c1.2,2.7,2.3,5.4,3.4,8.1c0.6,1.5,1.3,3,1.9,4.5c4.4,10.6,4.4,10.6,4.1,15.5c-1.6,0-3.3,0-5,0
	c-1.7-3.8-3.3-7.7-5-11.5c-0.6-1.3-1.1-2.6-1.7-3.9C156.4,406.7,156.4,406.7,158,402z"/>
<path class="st1" d="M226,408c2.5,0.5,2.5,0.5,5,1c-0.6,4-2.7,6.8-4.9,10.1c-0.4,0.6-0.8,1.2-1.2,1.8c-0.8,1.2-1.6,2.5-2.5,3.7
	c-1.3,1.9-2.5,3.7-3.8,5.6c-3.4,5.1-6.8,10.1-10.7,14.8c-1.3-0.3-2.6-0.7-4-1c1.5-5.5,4.1-9.9,7.1-14.6c0.5-0.8,1-1.6,1.5-2.4
	C216.7,420.4,221.1,414.1,226,408z"/>
<path class="st0" d="M212.3,519.6c2.5,0,5,0,7.5-0.1c3.6,0,7.1,0,10.7,0c1.1,0,2.1,0,3.2,0c6.3,0.1,10.1,0.9,15.3,4.5
	c-0.3,0.7-0.7,1.3-1,2c-1.5-0.7-1.5-0.7-2.9-1.5c-6.3-2.4-13.1-1.9-19.7-1.8c-2.3,0-4.6,0-6.9,0c-8.4,0-16.7,0.4-25.1,1
	c-8.9,0.6-17.9,0.6-26.8,0.8c-2,0-4,0.1-6,0.1c-4.8,0.1-9.7,0.2-14.5,0.3c0-0.7,0-1.3,0-2C168.1,520.8,190.1,519.7,212.3,519.6z"/>
<path class="st6" d="M389,181c5.3,1.5,9.6,3.9,14.2,6.7c0.7,0.4,1.5,0.9,2.3,1.3c5.7,3.4,11.2,7,16.5,11c-0.3,1.3-0.7,2.6-1,4
	c-3.6-0.6-6.2-1.5-9.3-3.3c-0.8-0.5-1.6-0.9-2.4-1.4c-0.8-0.5-1.6-1-2.5-1.5c-0.8-0.5-1.6-0.9-2.4-1.4c-5.6-3.3-11-6.8-16.3-10.4
	C388.3,184.4,388.7,182.7,389,181z"/>
<path class="st0" d="M191.3,606.5c3.3,0.6,4.6,2,6.6,4.6c1.8,3.2,2.4,6.3,3.1,9.9c-1.8,1-3.6,2-5.4,3c-1,0.6-2,1.1-3,1.7
	C190,627,190,627,188,627c-0.2-3-0.4-5.9-0.6-8.9c-0.1-0.8-0.1-1.7-0.2-2.6c-0.1-0.8-0.1-1.6-0.2-2.4c-0.1-0.7-0.1-1.5-0.2-2.3
	C187.1,607.8,188.5,607.1,191.3,606.5z"/>
<path class="st1" d="M416,162c3.9-0.5,6.2-0.1,9.4,2.2c1.2,1,2.4,1.9,3.5,2.9c0.6,0.5,1.2,1,1.9,1.5c1.8,1.5,3.5,2.9,5.2,4.4
	c1.2,1.1,1.2,1.1,2.5,2.1c1.9,1.8,1.9,1.8,4.5,4.9c-0.3,2.2-0.3,2.2-1,4c-4-0.6-6.1-2.5-9.1-5.1c-4.6-3.9-9.2-7.5-14-11.1
	C416.9,165.9,416.4,164.8,416,162z"/>
<path class="st1" d="M136,433c5.8,0.5,9.7,2.9,14.6,5.8c0.7,0.4,1.5,0.9,2.2,1.3c4,2.4,7.7,4.9,11.2,7.9c-0.3,1-0.7,2-1,3
	c-6.2-0.4-10.9-3.4-16.2-6.4c-0.9-0.5-1.8-1-2.8-1.5c-6.7-3.7-6.7-3.7-9-6C135.4,434.9,135.4,434.9,136,433z"/>
<path class="st1" d="M534,384c4.1,0.6,6.4,2.7,9.5,5.3c0.9,0.8,1.9,1.6,2.8,2.4c0.9,0.8,1.8,1.5,2.7,2.3c1.2,1,1.2,1,2.3,2
	c1.7,2,1.7,2,1.7,6c-4.6-0.5-7-2.3-10.6-5.3c-1.4-1.2-1.4-1.2-2.8-2.4c-4.7-4.2-4.7-4.2-6.6-6.3C533.2,385.8,533.2,385.8,534,384z"
	/>
<path class="st1" d="M525,401c5.2,0.4,7.8,2,11.7,5.3c1.4,1.2,1.4,1.2,2.8,2.4c2.2,2,4,3.8,5.5,6.3c-0.3,1-0.7,2-1,3
	c-4.7-1.7-8-4.2-11.8-7.3c-1.7-1.4-3.4-2.7-5.2-3.9c-0.6-0.6-1.3-1.2-1.9-1.8C525,403.7,525,402.4,525,401z"/>
<path class="st6" d="M543.6,369.8c3.9,0.2,7,1.2,10.7,2.5c1.2,0.4,2.5,0.8,3.7,1.3c3,1.5,3,1.5,3.9,3.7c0,0.6,0.1,1.2,0.1,1.8
	c-4.7,1.5-8.2,0.3-12.7-1.2c-0.7-0.2-1.4-0.4-2-0.6c-3-1-4.9-1.7-6.7-4.4c-0.2-0.6-0.4-1.2-0.5-1.8C541,370,541,370,543.6,369.8z"/>
<path class="st7" d="M219.7,519.7c1.8,0,3.6,0,5.4-0.1c2.6,0,5.3-0.1,7.9-0.1c0.8,0,1.6,0,2.4-0.1c5.6,0,8.9,1.3,13.6,4.5
	c-0.3,0.7-0.7,1.3-1,2c-1.1-0.5-2.1-1-3.3-1.5c-5.5-2.1-10.9-2-16.7-2c-1.1,0-2.2,0-3.4-0.1c-3.6-0.1-7.1-0.1-10.7-0.1
	c-2.4,0-4.8-0.1-7.3-0.1c-5.9-0.1-11.8-0.2-17.7-0.2c0-0.3,0-0.7,0-1C199.2,520,209.4,519.8,219.7,519.7z"/>
<path class="st1" d="M552.2,341.9c1.9,0,1.9,0,3.9,0c1.3,0,2.6,0,3.9,0c1,0,2,0,3,0c-0.3,1.6-0.7,3.3-1,5c-4.6,0-9.2,0-14,0
	C548,342,548,342,552.2,341.9z"/>
<path class="st6" d="M498,374c3.3,0.6,5.2,1.7,7.8,3.9c0.6,0.5,1.2,1,1.9,1.6c1.4,1.6,1.4,1.6,1.4,4.6c-2.1,0.4-2.1,0.4-5,0
	c-2.5-1.8-4.8-3.8-7-6C497.3,376.7,497.7,375.4,498,374z"/>
<path class="st4" d="M249,524c-0.3,0.7-0.7,1.3-1,2c-1.1-0.5-2.2-1-3.3-1.5c-5.2-1.9-10.2-2.1-15.7-2.2c-1,0-1.9-0.1-2.9-0.1
	c-2.4-0.1-4.7-0.2-7.1-0.2c0-0.3,0-0.7,0-1c3-0.2,6.1-0.4,9.1-0.6c0.9-0.1,1.7-0.1,2.6-0.2C237.7,519.9,243,520,249,524z"/>
<path class="st3" d="M302,727c4.9,1.8,4.9,1.8,6,4c-3.3,0-6.6,0-10,0C299.3,729.7,300.6,728.4,302,727z"/>
</svg>
